<?xml version="1.0" encoding="iso-8859-1"?>
<!-- Uploaded to: SVG Repo, www.svgrepo.com, Generator: SVG Repo Mixer Tools -->
<svg fill="#7ac64d" height="32px" width="32px" version="1.1" id="Layer_1" xmlns="http://www.w3.org/2000/svg" xmlns:xlink="http://www.w3.org/1999/xlink" 
	 viewBox="0 0 512.002 512.002" xml:space="preserve">
<g>
	<g>
		<circle cx="255.29" cy="69.475" r="8.732"/>
	</g>
</g>
<g>
	<g>
		<circle cx="255.29" cy="102.612" r="8.732"/>
	</g>
</g>
<g>
	<g>
		<circle cx="255.29" cy="136.039" r="8.732"/>
	</g>
</g>
<g>
	<g>
		<circle cx="255.29" cy="169.816" r="8.732"/>
	</g>
</g>
<g>
	<g>
		<circle cx="255.29" cy="202.883" r="8.732"/>
	</g>
</g>
<g>
	<g>
		<circle cx="255.29" cy="335.511" r="8.732"/>
	</g>
</g>
<g>
	<g>
		<circle cx="255.29" cy="375.971" r="8.732"/>
	</g>
</g>
<g>
	<g>
		<path d="M367.357,111.343c4.824,0,8.732-3.909,8.732-8.732c0-4.824-3.909-8.732-8.732-8.732h-25.334V78.208h25.334
			c4.824,0,8.732-3.909,8.732-8.732s-3.909-8.732-8.732-8.732h-25.353c-0.388-17.742-14.797-32.082-32.567-32.354
			C305.504,12.122,290.832,0,273.375,0H237.2c-17.477,0-32.16,12.146-36.075,28.439c-17.103,1-30.75,15.044-31.127,32.304h-25.353
			c-4.824,0-8.732,3.909-8.732,8.732s3.909,8.732,8.732,8.732h25.334v15.671h-25.334c-4.824,0-8.732,3.909-8.732,8.732
			c0,4.824,3.909,8.732,8.732,8.732h25.334v15.968h-25.334c-4.824,0-8.732,3.909-8.732,8.732s3.909,8.732,8.732,8.732h25.334v16.311
			h-25.334c-4.824,0-8.732,3.909-8.732,8.732s3.909,8.732,8.732,8.732h25.334v15.597h-25.334c-4.824,0-8.732,3.909-8.732,8.732
			s3.909,8.732,8.732,8.732h25.334v3.682c0,18.251,14.847,33.098,33.098,33.098h14.081v28.076
			c-6.193,3.16-10.453,9.586-10.453,17.001v169.235c0,27.182,22.114,49.296,49.296,49.296s49.296-22.114,49.296-49.296V331.14
			c0-4.824-3.909-8.732-8.732-8.732s-8.732,3.909-8.732,8.732v131.564c0,17.552-14.279,31.831-31.831,31.831
			c-17.552,0-31.831-14.279-31.831-31.831V293.47c0-0.897,0.729-1.625,1.625-1.625h0.094h60.222h0.094
			c0.898,0,1.625,0.729,1.625,1.625c0,4.824,3.909,8.732,8.732,8.732s8.732-3.909,8.732-8.732c0-7.416-4.259-13.841-10.453-17.001
			v-28.076h14.081c18.251,0,33.098-14.847,33.098-33.098v-3.682h25.334c4.824,0,8.732-3.909,8.732-8.732s-3.909-8.732-8.732-8.732
			h-25.334V178.55h25.334c4.824,0,8.732-3.909,8.732-8.732s-3.909-8.732-8.732-8.732h-25.334v-16.311h25.334
			c4.824,0,8.732-3.909,8.732-8.732s-3.909-8.732-8.732-8.732h-25.334v-15.966H367.357z M237.199,17.465h36.174
			c7.696,0,14.374,4.449,17.593,10.911h-71.361C222.826,21.914,229.503,17.465,237.199,17.465z M277.38,274.379h-42.757v-25.988
			h42.757V274.379z M324.558,215.294c0,8.619-7.013,15.633-15.633,15.633h-22.814h-60.222h-22.814
			c-8.619,0-15.633-7.013-15.633-15.633V61.474c0-8.62,7.013-15.633,15.633-15.633h5.747h92.927h7.176
			c8.619,0,15.633,7.013,15.633,15.633V215.294z"/>
	</g>
</g>
<g>
	<g>
		<path d="M298.798,60.743h-14.882c-4.824,0-8.732,3.909-8.732,8.732s3.909,8.732,8.732,8.732h14.882
			c4.824,0,8.732-3.909,8.732-8.732S303.621,60.743,298.798,60.743z"/>
	</g>
</g>
<g>
	<g>
		<path d="M298.798,93.878h-14.882c-4.824,0-8.732,3.909-8.732,8.732c0,4.824,3.909,8.732,8.732,8.732h14.882
			c4.824,0,8.732-3.909,8.732-8.732C307.53,97.787,303.621,93.878,298.798,93.878z"/>
	</g>
</g>
<g>
	<g>
		<path d="M298.798,127.31h-14.882c-4.824,0-8.732,3.909-8.732,8.732s3.909,8.732,8.732,8.732h14.882
			c4.824,0,8.732-3.909,8.732-8.732S303.621,127.31,298.798,127.31z"/>
	</g>
</g>
<g>
	<g>
		<path d="M298.798,161.086h-14.882c-4.824,0-8.732,3.909-8.732,8.732s3.909,8.732,8.732,8.732h14.882
			c4.824,0,8.732-3.909,8.732-8.732S303.621,161.086,298.798,161.086z"/>
	</g>
</g>
<g>
	<g>
		<path d="M298.798,194.147h-14.882c-4.824,0-8.732,3.909-8.732,8.732s3.909,8.732,8.732,8.732h14.882
			c4.824,0,8.732-3.909,8.732-8.732S303.621,194.147,298.798,194.147z"/>
	</g>
</g>
<g>
	<g>
		<path d="M226.657,60.743h-14.882c-4.824,0-8.732,3.909-8.732,8.732s3.909,8.732,8.732,8.732h14.882
			c4.824,0,8.732-3.909,8.732-8.732S231.481,60.743,226.657,60.743z"/>
	</g>
</g>
<g>
	<g>
		<path d="M226.657,93.878h-14.882c-4.824,0-8.732,3.909-8.732,8.732c0,4.824,3.909,8.732,8.732,8.732h14.882
			c4.824,0,8.732-3.909,8.732-8.732C235.39,97.787,231.481,93.878,226.657,93.878z"/>
	</g>
</g>
<g>
	<g>
		<path d="M226.657,127.31h-14.882c-4.824,0-8.732,3.909-8.732,8.732s3.909,8.732,8.732,8.732h14.882
			c4.824,0,8.732-3.909,8.732-8.732S231.481,127.31,226.657,127.31z"/>
	</g>
</g>
<g>
	<g>
		<path d="M226.657,161.086h-14.882c-4.824,0-8.732,3.909-8.732,8.732s3.909,8.732,8.732,8.732h14.882
			c4.824,0,8.732-3.909,8.732-8.732S231.481,161.086,226.657,161.086z"/>
	</g>
</g>
<g>
	<g>
		<path d="M226.657,194.147h-14.882c-4.824,0-8.732,3.909-8.732,8.732s3.909,8.732,8.732,8.732h14.882
			c4.824,0,8.732-3.909,8.732-8.732S231.481,194.147,226.657,194.147z"/>
	</g>
</g>
<g>
	<g>
		<path d="M264.019,417.631c-0.084-4.77-3.977-8.578-8.728-8.578c-0.052,0-0.106,0-0.158,0.001
			c-4.823,0.085-8.661,4.063-8.576,8.886l0.714,40.362c0.084,4.77,3.977,8.578,8.728,8.578c0.052,0,0.106,0,0.158-0.001
			c4.823-0.085,8.661-4.063,8.576-8.886L264.019,417.631z"/>
	</g>
</g>
</svg>